<svg width="150" height="50" fill="none" xmlns="http://www.w3.org/2000/svg"><g clip-path="url(#a)"><path d="M138.055 0H11.952c-.46 0-.914 0-1.372.003-.384.002-.765.01-1.152.016a16.61 16.61 0 0 0-2.512.22c-.83.14-1.633.405-2.383.784a8.07 8.07 0 0 0-3.506 3.5 8.236 8.236 0 0 0-.783 2.379c-.14.827-.215 1.664-.225 2.503-.012.383-.013.767-.019 1.15v28.893c.006.389.007.764.019 1.153.01.838.085 1.675.225 2.502.137.829.402 1.632.783 2.38a7.76 7.76 0 0 0 1.477 2.018 7.865 7.865 0 0 0 2.029 1.474c.75.38 1.553.646 2.383.788.83.136 1.67.21 2.512.221.387.009.768.014 1.152.014.458.002.912.002 1.372.002h126.103c.45 0 .908 0 1.359-.002.382 0 .773-.005 1.155-.014.84-.01 1.678-.084 2.507-.22a8.54 8.54 0 0 0 2.392-.79 7.85 7.85 0 0 0 2.027-1.473 8.005 8.005 0 0 0 1.482-2.017 8.26 8.26 0 0 0 .776-2.38c.139-.828.217-1.664.232-2.503.005-.389.005-.764.005-1.153.01-.454.01-.905.01-1.367v-26.16c0-.458 0-.912-.01-1.365 0-.384 0-.768-.005-1.152a16.93 16.93 0 0 0-.232-2.502 8.284 8.284 0 0 0-.776-2.38 8.095 8.095 0 0 0-3.509-3.499 8.492 8.492 0 0 0-2.392-.784 16.388 16.388 0 0 0-2.507-.22c-.382-.007-.773-.014-1.155-.017C138.963 0 138.505 0 138.055 0Z" fill="#000"/><path d="M10.586 48.906c-.382 0-.755-.005-1.134-.013a15.952 15.952 0 0 1-2.343-.204 7.389 7.389 0 0 1-2.077-.685 6.776 6.776 0 0 1-1.75-1.27 6.653 6.653 0 0 1-1.28-1.746 7.139 7.139 0 0 1-.68-2.072 15.475 15.475 0 0 1-.21-2.343c-.007-.264-.018-1.142-.018-1.142V10.555s.011-.864.019-1.118c.01-.784.079-1.566.207-2.34a7.18 7.18 0 0 1 .681-2.077 6.976 6.976 0 0 1 3.03-3.026 7.314 7.314 0 0 1 2.073-.68 15.821 15.821 0 0 1 2.351-.205l1.131-.015h128.822l1.144.016c.781.009 1.559.077 2.33.203a7.457 7.457 0 0 1 2.094.685 6.997 6.997 0 0 1 3.027 3.025c.327.649.553 1.344.671 2.06.13.78.203 1.57.218 2.36.004.354.004.734.004 1.112.01.47.01.915.01 1.365v26.161c0 .454 0 .897-.01 1.344 0 .407 0 .779-.005 1.162-.015.777-.086 1.551-.214 2.317a7.18 7.18 0 0 1-.677 2.087 6.866 6.866 0 0 1-1.273 1.733 6.796 6.796 0 0 1-1.754 1.278 7.376 7.376 0 0 1-2.091.687c-.775.126-1.558.194-2.343.204-.368.008-.752.013-1.125.013l-1.359.003-127.47-.003Z" fill="#000"/><path d="M31.334 24.861a6.418 6.418 0 0 1 .84-3.092 6.442 6.442 0 0 1 2.231-2.305 6.618 6.618 0 0 0-5.203-2.805c-2.188-.229-4.31 1.307-5.426 1.307-1.137 0-2.854-1.284-4.703-1.246a6.943 6.943 0 0 0-3.384 1.007 6.917 6.917 0 0 0-2.447 2.54c-2.52 4.352-.64 10.748 1.774 14.267 1.209 1.722 2.62 3.647 4.469 3.578 1.808-.074 2.483-1.15 4.665-1.15 2.163 0 2.796 1.15 4.681 1.107 1.94-.031 3.163-1.73 4.329-3.47a14.233 14.233 0 0 0 1.979-4.02 6.23 6.23 0 0 1-2.766-2.287 6.204 6.204 0 0 1-1.04-3.43ZM27.773 14.346a6.322 6.322 0 0 0 1.453-4.537 6.468 6.468 0 0 0-4.181 2.157 6.023 6.023 0 0 0-1.491 4.37 5.355 5.355 0 0 0 4.219-1.99ZM53.026 33.925h-5.934l-1.425 4.195h-2.513l5.62-15.522h2.611l5.62 15.522H54.45l-1.423-4.195Zm-5.32-1.936h4.704l-2.319-6.81h-.065l-2.32 6.81ZM69.142 32.462c0 3.517-1.887 5.777-4.736 5.777a3.857 3.857 0 0 1-3.57-1.98h-.054v5.605h-2.33v-15.06h2.255v1.881h.043a4.022 4.022 0 0 1 3.614-2c2.88 0 4.778 2.27 4.778 5.777Zm-2.394 0c0-2.29-1.187-3.797-2.999-3.797-1.78 0-2.977 1.538-2.977 3.797 0 2.28 1.197 3.808 2.977 3.808 1.812 0 3-1.496 3-3.808ZM81.634 32.462c0 3.517-1.888 5.777-4.737 5.777a3.857 3.857 0 0 1-3.57-1.98h-.054v5.605h-2.33v-15.06h2.255v1.881h.043a4.021 4.021 0 0 1 3.613-2c2.88 0 4.78 2.27 4.78 5.777Zm-2.395 0c0-2.29-1.187-3.797-2.999-3.797-1.78 0-2.977 1.538-2.977 3.797 0 2.28 1.197 3.808 2.977 3.808 1.812 0 3-1.496 3-3.808ZM89.888 33.795c.173 1.54 1.673 2.55 3.722 2.55 1.963 0 3.376-1.01 3.376-2.398 0-1.205-.852-1.927-2.87-2.421L92.1 31.04c-2.858-.688-4.185-2.021-4.185-4.184 0-2.678 2.34-4.518 5.663-4.518 3.29 0 5.545 1.84 5.621 4.518h-2.352c-.14-1.55-1.425-2.484-3.301-2.484-1.877 0-3.16.946-3.16 2.323 0 1.097.82 1.743 2.826 2.237l1.715.42c3.194.753 4.52 2.032 4.52 4.303 0 2.904-2.32 4.723-6.009 4.723-3.452 0-5.783-1.776-5.933-4.584h2.384ZM104.475 24.125v2.678h2.158v1.84h-2.158v6.239c0 .97.432 1.42 1.381 1.42.256-.004.512-.022.766-.053v1.829c-.426.08-.86.115-1.294.107-2.297 0-3.193-.86-3.193-3.055v-6.487h-1.651v-1.84h1.651v-2.678h2.34ZM107.882 32.462c0-3.56 2.103-5.798 5.382-5.798 3.291 0 5.384 2.238 5.384 5.798 0 3.571-2.082 5.799-5.384 5.799-3.3 0-5.382-2.228-5.382-5.799Zm8.393 0c0-2.442-1.123-3.884-3.011-3.884-1.887 0-3.01 1.453-3.01 3.884 0 2.453 1.123 3.883 3.01 3.883 1.888 0 3.011-1.43 3.011-3.883ZM120.569 26.803h2.222v1.926h.053a2.703 2.703 0 0 1 2.73-2.044 3.59 3.59 0 0 1 .798.086v2.173a3.262 3.262 0 0 0-1.046-.14 2.35 2.35 0 0 0-2.325 1.607c-.106.321-.141.66-.103.996v6.713h-2.329V26.803ZM137.113 34.796c-.313 2.055-2.32 3.465-4.887 3.465-3.301 0-5.351-2.206-5.351-5.745 0-3.55 2.061-5.852 5.253-5.852 3.14 0 5.115 2.15 5.115 5.582v.796h-8.016v.14a2.941 2.941 0 0 0 1.828 2.99c.389.158.806.232 1.225.216a2.572 2.572 0 0 0 2.621-1.592h2.212Zm-7.875-3.377h5.674a2.717 2.717 0 0 0-1.686-2.668 2.74 2.74 0 0 0-1.098-.205 2.879 2.879 0 0 0-2.672 1.77c-.145.35-.219.724-.218 1.103ZM47.416 10.914a3.318 3.318 0 0 1 2.639 1.022 3.298 3.298 0 0 1 .88 2.684c0 2.383-1.292 3.752-3.52 3.752h-2.701v-7.458h2.702Zm-1.54 6.403h1.41a2.359 2.359 0 0 0 1.873-.755 2.344 2.344 0 0 0 .593-1.927 2.346 2.346 0 0 0-1.45-2.499 2.364 2.364 0 0 0-1.016-.168h-1.41v5.35ZM52.247 15.556a2.658 2.658 0 0 1 .683-2.048 2.673 2.673 0 0 1 1.979-.873 2.68 2.68 0 0 1 2.537 1.825c.118.353.16.726.125 1.096a2.658 2.658 0 0 1-.681 2.05 2.674 2.674 0 0 1-1.981.875 2.68 2.68 0 0 1-1.98-.875 2.665 2.665 0 0 1-.682-2.05Zm4.178 0c0-1.22-.55-1.934-1.514-1.934-.968 0-1.513.714-1.513 1.934 0 1.23.544 1.938 1.513 1.938.964 0 1.514-.713 1.514-1.938ZM64.647 18.372h-1.155l-1.167-4.145h-.088l-1.162 4.145h-1.144l-1.556-5.628h1.13l1.011 4.295h.083l1.16-4.295h1.07l1.16 4.295h.088l1.006-4.295h1.114l-1.55 5.628ZM67.506 12.744h1.072v.894h.083a1.687 1.687 0 0 1 1.685-1.003 1.84 1.84 0 0 1 1.89 1.282c.082.263.104.54.063.811v3.644h-1.113v-3.365c0-.904-.395-1.354-1.218-1.354a1.299 1.299 0 0 0-1.288.878c-.06.176-.08.363-.06.548v3.293h-1.114v-5.628ZM74.075 10.546h1.114v7.826h-1.114v-7.826ZM76.737 15.555a2.66 2.66 0 0 1 1.58-2.692 2.68 2.68 0 0 1 3.62 1.597c.117.352.16.725.124 1.095a2.661 2.661 0 0 1-1.579 2.697 2.683 2.683 0 0 1-3.064-.646 2.666 2.666 0 0 1-.681-2.05Zm4.178 0c0-1.22-.55-1.933-1.514-1.933-.969 0-1.513.713-1.513 1.933 0 1.23.544 1.938 1.513 1.938.964 0 1.514-.713 1.514-1.938ZM83.234 16.78c0-1.012.757-1.597 2.1-1.68l1.528-.087v-.486c0-.595-.394-.93-1.155-.93-.622 0-1.053.227-1.176.625h-1.079c.114-.967 1.026-1.587 2.306-1.587 1.415 0 2.214.703 2.214 1.892v3.846h-1.073v-.792h-.088a1.897 1.897 0 0 1-1.695.884 1.709 1.709 0 0 1-1.733-.995 1.697 1.697 0 0 1-.149-.69Zm3.629-.48v-.47l-1.379.087c-.777.052-1.13.316-1.13.812 0 .506.44.801 1.047.801a1.335 1.335 0 0 0 1.321-.72c.08-.16.128-.333.14-.51ZM89.436 15.556c0-1.779.916-2.906 2.342-2.906a1.864 1.864 0 0 1 1.731.988h.084v-3.092h1.114v7.826h-1.068v-.889h-.088a1.956 1.956 0 0 1-1.773.982c-1.435 0-2.343-1.127-2.343-2.91Zm1.15 0c0 1.193.565 1.912 1.508 1.912.94 0 1.52-.729 1.52-1.908 0-1.173-.587-1.912-1.52-1.912-.937 0-1.508.723-1.508 1.908ZM99.316 15.556a2.66 2.66 0 0 1 1.58-2.693 2.675 2.675 0 0 1 3.743 2.693 2.651 2.651 0 0 1-.681 2.05 2.676 2.676 0 0 1-4.642-2.05Zm4.178 0c0-1.22-.55-1.934-1.515-1.934-.968 0-1.513.714-1.513 1.934 0 1.23.545 1.938 1.513 1.938.965 0 1.515-.713 1.515-1.938ZM106.134 12.744h1.072v.894h.083a1.692 1.692 0 0 1 1.685-1.003 1.84 1.84 0 0 1 1.891 1.282c.081.263.103.54.063.811v3.644h-1.114v-3.365c0-.904-.395-1.354-1.218-1.354a1.299 1.299 0 0 0-1.288.878c-.059.176-.08.363-.06.548v3.293h-1.114v-5.628ZM117.222 11.342v1.427h1.223v.936h-1.223v2.894c0 .59.244.848.798.848.142 0 .284-.009.425-.026v.926c-.2.035-.403.054-.606.056-1.239 0-1.732-.434-1.732-1.52v-3.178h-.896v-.936h.896v-1.427h1.115ZM119.967 10.546h1.104v3.102h.088a1.733 1.733 0 0 1 1.721-1.008 1.867 1.867 0 0 1 1.467.593 1.863 1.863 0 0 1 .477 1.505v3.634h-1.115v-3.36c0-.899-.42-1.354-1.207-1.354a1.319 1.319 0 0 0-1.421 1.427v3.287h-1.114v-7.826ZM131.319 16.852c-.151.515-.479.96-.926 1.258-.447.297-.985.429-1.52.37a2.57 2.57 0 0 1-1.978-.85 2.545 2.545 0 0 1-.629-2.054 2.588 2.588 0 0 1 1.52-2.716c.34-.151.709-.228 1.082-.225 1.571 0 2.518 1.07 2.518 2.837v.388h-3.985v.062a1.472 1.472 0 0 0 .394 1.138 1.485 1.485 0 0 0 1.109.475 1.355 1.355 0 0 0 1.343-.683h1.072Zm-3.918-1.814h2.851a1.353 1.353 0 0 0-.371-1.036 1.36 1.36 0 0 0-1.019-.422 1.447 1.447 0 0 0-1.355.898 1.42 1.42 0 0 0-.106.56Z" fill="#fff"/></g><defs><clipPath id="a"><path fill="#fff" d="M0 0h150v50H0z"/></clipPath></defs></svg>