<svg width="56" height="56" fill="none" xmlns="http://www.w3.org/2000/svg"><rect width="56" height="56" rx="10" fill="#E9EEF2"/><path fill-rule="evenodd" clip-rule="evenodd" d="M33.058 13.333a1 1 0 0 1 1 1v1.13c1.947.134 3.564.801 4.709 1.948 1.249 1.255 1.906 3.058 1.9 5.223v12.163c0 4.443-2.822 7.203-7.362 7.203H22.028c-4.54 0-7.361-2.798-7.361-7.304V22.631c0-4.19 2.516-6.88 6.62-7.167v-1.13a1 1 0 0 1 2 0v1.105h8.77v-1.106a1 1 0 0 1 1-1Zm5.608 11.872h-22v9.491c0 3.422 1.904 5.304 5.362 5.304h11.277c3.458 0 5.362-1.848 5.362-5.203v-9.592Zm-5.065 8.39a1 1 0 0 1 0 2 1.005 1.005 0 0 1-1.005-1c0-.552.441-1 .993-1h.012Zm-5.916 0a1 1 0 0 1 0 2 1.005 1.005 0 0 1-1.006-1c0-.552.442-1 .994-1h.012Zm-5.93 0a1 1 0 0 1 0 2 1.006 1.006 0 0 1-1.006-1c0-.552.443-1 .995-1h.012Zm11.846-5.182a1 1 0 0 1 0 2 1.005 1.005 0 0 1-1.005-1c0-.552.441-1 .993-1h.012Zm-5.916 0a1 1 0 0 1 0 2 1.005 1.005 0 0 1-1.006-1c0-.552.442-1 .994-1h.012Zm-5.93 0a1 1 0 0 1 0 2 1.006 1.006 0 0 1-1.006-1c0-.552.443-1 .995-1h.012Zm10.302-10.974h-8.77v1.282a1 1 0 0 1-2 0V17.47c-2.988.25-4.62 2.061-4.62 5.162v.574h22v-.574c.005-1.647-.438-2.927-1.317-3.807-.77-.773-1.898-1.236-3.291-1.354l-.001 1.251a1 1 0 0 1-2 0V17.44Z" fill="#000"/></svg>