<svg width="56" height="56" fill="none" xmlns="http://www.w3.org/2000/svg"><rect width="56" height="56" rx="10" fill="#E9EEF2"/><path fill-rule="evenodd" clip-rule="evenodd" d="M34.22 14.98c4.52 0 7.555 3.171 7.555 7.889v10.89c0 4.718-3.036 7.888-7.556 7.888H22.662c-4.519 0-7.554-3.17-7.554-7.888V22.87c0-4.718 3.035-7.888 7.554-7.888H34.22Zm0 2H22.662c-3.374 0-5.554 2.311-5.554 5.889v10.89c0 3.578 2.18 5.888 5.554 5.888h11.557c3.375 0 5.556-2.31 5.556-5.888V22.87c0-3.578-2.18-5.888-5.555-5.888Zm-5.78 4.512a1 1 0 0 1 1 1v5.248l4.035 2.404a1.002 1.002 0 0 1-.513 1.86c-.175 0-.35-.045-.512-.14l-4.522-2.697a1.006 1.006 0 0 1-.488-.859v-5.816a1 1 0 0 1 1-1Z" fill="#000"/></svg>