<svg width="168" height="50" fill="none" xmlns="http://www.w3.org/2000/svg"><path d="M161.778 0H6.222C2.786 0 0 2.798 0 6.25v37.5C0 47.202 2.786 50 6.222 50h155.556c3.436 0 6.222-2.798 6.222-6.25V6.25c0-3.452-2.786-6.25-6.222-6.25Z" fill="#000"/><path d="M161.778 1c1.386 0 2.715.553 3.696 1.538.98.984 1.53 2.32 1.53 3.712v37.5c0 1.392-.55 2.728-1.53 3.712A5.217 5.217 0 0 1 161.778 49H6.222a5.215 5.215 0 0 1-3.696-1.538 5.262 5.262 0 0 1-1.53-3.712V6.25c0-1.392.55-2.728 1.53-3.712A5.215 5.215 0 0 1 6.222 1h155.556Zm0-1H6.222c-1.65 0-3.233.658-4.4 1.83A6.264 6.264 0 0 0 0 6.25v37.5c0 1.658.656 3.247 1.822 4.42a6.208 6.208 0 0 0 4.4 1.83h155.556a6.21 6.21 0 0 0 4.4-1.83A6.267 6.267 0 0 0 168 43.75V6.25a6.268 6.268 0 0 0-1.822-4.42 6.21 6.21 0 0 0-4.4-1.83Z" fill="#000"/><path d="M59.011 12.8a3.415 3.415 0 0 1-.933 2.5 3.61 3.61 0 0 1-2.738 1.1 3.72 3.72 0 0 1-2.75-1.125 3.997 3.997 0 0 1 0-5.575 3.926 3.926 0 0 1 4.281-.812 3.16 3.16 0 0 1 1.17.837l-.66.662a2.49 2.49 0 0 0-2.04-.9 2.976 2.976 0 0 0-2.464 1.334 3.009 3.009 0 0 0 .567 3.967 2.98 2.98 0 0 0 3.987-.138c.38-.419.6-.959.622-1.525H55.34v-.9h3.622c.028.19.045.383.05.575ZM64.711 9.675h-3.36v2.375h3.061v.9h-3.06v2.375h3.36v.925H60.38v-7.5h4.331v.925ZM68.793 16.25h-.958V9.675h-2.091V8.75h5.19v.925h-2.141v6.575ZM74.592 16.25v-7.5h.958v7.5h-.958ZM79.806 16.25h-.958V9.675h-2.09V8.75h5.126v.925h-2.078v6.575ZM91.603 15.275a3.87 3.87 0 0 1-2.737 1.14 3.854 3.854 0 0 1-2.738-1.14 4.06 4.06 0 0 1 0-5.55 3.646 3.646 0 0 1 2.738-1.137 3.719 3.719 0 0 1 2.737 1.137A3.838 3.838 0 0 1 92.7 12.5a3.763 3.763 0 0 1-1.096 2.775Zm-4.766-.625a2.848 2.848 0 0 0 2.029.852 2.838 2.838 0 0 0 2.028-.852 3.183 3.183 0 0 0 0-4.3 2.848 2.848 0 0 0-2.028-.852 2.838 2.838 0 0 0-2.029.852 3.183 3.183 0 0 0 0 4.3ZM94.055 16.25v-7.5h1.157l3.634 5.838V8.75h.958v7.5h-.995l-3.796-6.113V16.25h-.958Z" fill="#fff" stroke="#fff" stroke-width=".411" stroke-miterlimit="10"/><path d="M84.796 27.187a5.284 5.284 0 0 0-2.943.905 5.32 5.32 0 0 0-1.947 2.394 5.348 5.348 0 0 0 1.163 5.8 5.28 5.28 0 0 0 5.78 1.14 5.308 5.308 0 0 0 2.375-1.966c.58-.877.889-1.907.886-2.96a5.26 5.26 0 0 0-1.535-3.788 5.213 5.213 0 0 0-3.779-1.525Zm0 8.538a3.198 3.198 0 0 1-1.84-.43 3.22 3.22 0 0 1-1.28-1.397 3.238 3.238 0 0 1 .546-3.587 3.207 3.207 0 0 1 3.522-.806c.6.236 1.115.648 1.478 1.182.364.534.56 1.166.561 1.813a3.09 3.09 0 0 1-.816 2.245 3.062 3.062 0 0 1-2.17.98Zm-11.598-8.538a5.285 5.285 0 0 0-2.943.905 5.32 5.32 0 0 0-1.947 2.394 5.347 5.347 0 0 0 1.163 5.8 5.28 5.28 0 0 0 5.78 1.14 5.307 5.307 0 0 0 2.374-1.966c.58-.877.89-1.907.887-2.96a5.258 5.258 0 0 0-1.535-3.788 5.212 5.212 0 0 0-3.779-1.525Zm0 8.538a3.198 3.198 0 0 1-1.84-.43 3.22 3.22 0 0 1-1.28-1.397 3.238 3.238 0 0 1 .545-3.587 3.208 3.208 0 0 1 3.522-.806c.6.236 1.115.648 1.48 1.182.363.534.558 1.166.56 1.813a3.088 3.088 0 0 1-.816 2.245 3.062 3.062 0 0 1-2.17.98Zm-13.788-6.9v2.25h5.376a4.722 4.722 0 0 1-1.245 2.837 5.5 5.5 0 0 1-4.156 1.65 5.96 5.96 0 0 1-4.224-1.757 6.013 6.013 0 0 1-1.75-4.243c0-1.59.63-3.117 1.75-4.242a5.96 5.96 0 0 1 4.224-1.758 5.76 5.76 0 0 1 4.082 1.613l1.58-1.588a7.837 7.837 0 0 0-5.637-2.275 8.194 8.194 0 0 0-6.022 2.302 8.294 8.294 0 0 0 0 11.91 8.219 8.219 0 0 0 6.022 2.3 7.523 7.523 0 0 0 5.737-2.312 7.52 7.52 0 0 0 1.941-5.287 7.884 7.884 0 0 0-.112-1.4H59.41Zm56.386 1.75a5.002 5.002 0 0 0-1.741-2.401 4.962 4.962 0 0 0-2.789-.987 4.96 4.96 0 0 0-3.635 1.574 5.01 5.01 0 0 0-1.343 3.739 5.298 5.298 0 0 0 1.018 3.175 5.268 5.268 0 0 0 2.708 1.931 5.24 5.24 0 0 0 3.32-.081 5.27 5.27 0 0 0 2.611-2.063l-1.805-1.25a2.993 2.993 0 0 1-2.6 1.462 2.668 2.668 0 0 1-2.564-1.612l7.081-2.937-.261-.55Zm-7.218 1.775a2.942 2.942 0 0 1 .736-2.142 2.92 2.92 0 0 1 2.039-.97 2.035 2.035 0 0 1 1.954 1.137l-4.729 1.975Zm-5.75 5.15h2.328V21.875h-2.328V37.5Zm-3.808-9.125h-.087a3.66 3.66 0 0 0-2.787-1.25 5.291 5.291 0 0 0-3.582 1.646 5.338 5.338 0 0 0-1.463 3.673c0 1.367.524 2.682 1.463 3.673.94.99 2.222 1.58 3.582 1.645a3.57 3.57 0 0 0 2.787-1.25h.087v.763c0 2.037-1.082 3.125-2.825 3.125a2.927 2.927 0 0 1-1.623-.535 2.948 2.948 0 0 1-1.052-1.353l-2.016.838a4.995 4.995 0 0 0 1.858 2.307 4.961 4.961 0 0 0 2.834.843c2.725 0 4.977-1.613 4.977-5.538V27.5H99.02v.875Zm-2.675 7.35a3.205 3.205 0 0 1-2.14-1.01 3.233 3.233 0 0 1 0-4.417 3.205 3.205 0 0 1 2.14-1.01 2.963 2.963 0 0 1 2.097 1.002 2.99 2.99 0 0 1 .74 2.21 2.988 2.988 0 0 1-.732 2.222 2.963 2.963 0 0 1-2.105 1.003Zm30.352-13.85h-5.575V37.5h2.327v-5.925h3.248a4.818 4.818 0 0 0 3.645-1.29 4.871 4.871 0 0 0-1.689-8.145 4.818 4.818 0 0 0-1.956-.265Zm0 7.5h-3.248V24.05h3.298a2.655 2.655 0 0 1 2.46 1.651 2.683 2.683 0 0 1-1.441 3.495c-.323.135-.67.204-1.019.204l-.05-.025Zm14.361-2.238a4.325 4.325 0 0 0-2.428.57 4.353 4.353 0 0 0-1.716 1.818l2.053.862c.208-.375.519-.683.897-.885.377-.201.805-.29 1.231-.252a2.234 2.234 0 0 1 2.23 1.164c.142.263.23.551.259.848v.15a5.182 5.182 0 0 0-2.427-.6c-2.215 0-4.48 1.25-4.48 3.525a3.626 3.626 0 0 0 1.211 2.542 3.589 3.589 0 0 0 2.66.896 3.284 3.284 0 0 0 2.961-1.525h.075v1.25h2.24v-6.013c0-2.737-2.066-4.325-4.716-4.325l-.05-.025Zm-.286 8.563c-.76 0-1.817-.388-1.817-1.325 0-1.25 1.319-1.675 2.489-1.675a4.117 4.117 0 0 1 2.115.525 2.83 2.83 0 0 1-.902 1.766c-.503.46-1.156.72-1.836.734l-.049-.025Zm13.216-8.2-2.664 6.775h-.074l-2.763-6.775h-2.489l4.144 9.475-2.364 5.262h2.426l6.372-14.737h-2.588Zm-20.907 10h2.315V21.875h-2.315V37.5Z" fill="#fff"/><path d="M12.992 9.425a2.507 2.507 0 0 0-.585 1.75v27.65a2.432 2.432 0 0 0 .585 1.75l.087.1 15.419-15.488v-.375L13.079 9.337l-.087.088Z" fill="url(#a)"/><path d="m33.6 30.35-5.102-5.163v-.375L33.6 19.65l.112.075 6.11 3.475c1.742.987 1.742 2.612 0 3.612l-6.085 3.475-.137.063Z" fill="url(#b)"/><path d="M33.75 30.275 28.497 25 12.992 40.575a2.012 2.012 0 0 0 2.576.087l18.181-10.387" fill="url(#c)"/><path d="M33.75 19.725 15.567 9.35a1.998 1.998 0 0 0-2.576.075L28.498 25l5.251-5.275Z" fill="url(#d)"/><path opacity=".2" d="M33.6 30.163 15.568 40.475a2.06 2.06 0 0 1-2.489 0l-.087.088.087.1a2.06 2.06 0 0 0 2.489 0l18.181-10.388-.15-.112Z" fill="#000"/><path opacity=".12" d="M12.992 40.4a2.508 2.508 0 0 1-.548-1.762v.187a2.432 2.432 0 0 0 .585 1.75l.088-.087-.125-.088ZM39.822 26.625 33.6 30.163l.112.112 6.11-3.475a2.18 2.18 0 0 0 1.32-1.8 2.328 2.328 0 0 1-1.32 1.625Z" fill="#000"/><path opacity=".25" d="m15.568 9.525 24.254 13.85A2.316 2.316 0 0 1 41.142 25a2.194 2.194 0 0 0-1.32-1.8L15.568 9.35c-1.73-1-3.161-.175-3.161 1.825v.188c.037-2 1.431-2.825 3.16-1.838Z" fill="#fff"/><defs><linearGradient id="a" x1="27.129" y1="10.887" x2="6.154" y2="31.769" gradientUnits="userSpaceOnUse"><stop stop-color="#00A0FF"/><stop offset=".01" stop-color="#00A1FF"/><stop offset=".26" stop-color="#00BEFF"/><stop offset=".51" stop-color="#00D2FF"/><stop offset=".76" stop-color="#00DFFF"/><stop offset="1" stop-color="#00E3FF"/></linearGradient><linearGradient id="b" x1="42.099" y1="25" x2="11.996" y2="25" gradientUnits="userSpaceOnUse"><stop stop-color="#FFE000"/><stop offset=".41" stop-color="#FFBD00"/><stop offset=".78" stop-color="orange"/><stop offset="1" stop-color="#FF9C00"/></linearGradient><linearGradient id="c" x1="30.899" y1="27.875" x2="2.45" y2="56.186" gradientUnits="userSpaceOnUse"><stop stop-color="#FF3A44"/><stop offset="1" stop-color="#C31162"/></linearGradient><linearGradient id="d" x1="9.084" y1=".225" x2="21.784" y2="12.868" gradientUnits="userSpaceOnUse"><stop stop-color="#32A071"/><stop offset=".07" stop-color="#2DA771"/><stop offset=".48" stop-color="#15CF74"/><stop offset=".8" stop-color="#06E775"/><stop offset="1" stop-color="#00F076"/></linearGradient></defs></svg>