<svg width="48" height="48" viewBox="0 0 48 48" fill="none" xmlns="http://www.w3.org/2000/svg">
	<rect width="48" height="48" rx="6" fill="black" />
	<path
		d="M35.741 12.0025C35.411 12.0265 35.0871 12.1039 34.7819 12.2317H34.7778C34.4849 12.3478 33.0921 12.9337 30.9746 13.8218L23.3867 17.0175C17.942 19.3097 12.5898 21.567 12.5898 21.567L12.6535 21.5423C12.6535 21.5423 12.2845 21.6636 11.899 21.9278C11.6609 22.0793 11.456 22.2776 11.2967 22.5106C11.1075 22.7881 10.9554 23.2126 11.012 23.6515C11.1045 24.3937 11.5855 24.8388 11.9309 25.0844C12.2804 25.3332 12.6134 25.4493 12.6134 25.4493H12.6216L17.6408 27.1402C17.8659 27.8628 19.1703 32.1512 19.4838 33.139C19.6689 33.729 19.8487 34.098 20.0738 34.3796C20.1828 34.5236 20.3103 34.6438 20.4634 34.7404C20.543 34.7868 20.6279 34.8233 20.7163 34.8494L20.6649 34.8371C20.6803 34.8412 20.6926 34.8535 20.7039 34.8576C20.7451 34.8689 20.7728 34.873 20.8252 34.8813C21.6198 35.1218 22.2581 34.6284 22.2581 34.6284L22.2941 34.5996L25.2575 31.9014L30.2243 35.7118L30.3373 35.7601C31.3724 36.2144 32.4209 35.9616 32.9749 35.5155C33.533 35.0663 33.7499 34.4917 33.7499 34.4917L33.7859 34.3992L37.6241 14.7366C37.733 14.2515 37.7608 13.7972 37.6405 13.3562C37.5165 12.9099 37.2301 12.5261 36.8377 12.28C36.5082 12.0797 36.1261 11.983 35.741 12.0025ZM35.6371 14.1096C35.633 14.1744 35.6454 14.1672 35.6166 14.2916V14.3029L31.8144 33.7609C31.798 33.7886 31.7702 33.8493 31.6941 33.9099C31.614 33.9736 31.5502 34.0137 31.2162 33.8811L25.1413 29.2237L21.4718 32.5685L22.2427 27.6449L32.168 18.3939C32.5771 18.0136 32.4404 17.9334 32.4404 17.9334C32.4692 17.4667 31.8226 17.7967 31.8226 17.7967L19.307 25.5501L19.3029 25.5295L13.3042 23.5097V23.5056L13.2887 23.5025C13.2992 23.499 13.3095 23.4949 13.3196 23.4902L13.3525 23.4737L13.3843 23.4624C13.3843 23.4624 18.7407 21.2052 24.1854 18.913C26.9114 17.7648 29.6579 16.6084 31.7702 15.7162C33.023 15.1889 34.277 14.6647 35.5323 14.1436C35.6166 14.1107 35.5765 14.1107 35.6371 14.1107V14.1096Z"
		fill="white" />
</svg>